<mxfile host="app.diagrams.net" agent="Mozilla/5.0 (Windows NT 10.0; Win64; x64) AppleWebKit/537.36 (KHTML, like Gecko) Chrome/138.0.0.0 Safari/537.36 Edg/138.0.0.0" version="28.0.7">
  <diagram name="Página-1" id="wOfQE5rh18UGVMQB3yK2">
    <mxGraphModel dx="2134" dy="1950" grid="1" gridSize="10" guides="1" tooltips="1" connect="1" arrows="1" fold="1" page="1" pageScale="1" pageWidth="827" pageHeight="1169" math="0" shadow="0">
      <root>
        <mxCell id="0" />
        <mxCell id="1" parent="0" />
        <mxCell id="l69Jnb-oXw80vkSJOlWc-45" value="" style="rounded=0;whiteSpace=wrap;html=1;" parent="1" vertex="1">
          <mxGeometry x="-90" y="-170" width="1010" height="790" as="geometry" />
        </mxCell>
        <mxCell id="l69Jnb-oXw80vkSJOlWc-55" value="" style="edgeStyle=none;curved=1;rounded=0;orthogonalLoop=1;jettySize=auto;html=1;fontSize=12;startSize=8;endSize=8;" parent="1" source="l69Jnb-oXw80vkSJOlWc-6" target="l69Jnb-oXw80vkSJOlWc-10" edge="1">
          <mxGeometry relative="1" as="geometry" />
        </mxCell>
        <mxCell id="l69Jnb-oXw80vkSJOlWc-6" value="" style="rounded=0;whiteSpace=wrap;html=1;" parent="1" vertex="1">
          <mxGeometry x="150" y="-45" width="160" height="80" as="geometry" />
        </mxCell>
        <mxCell id="l69Jnb-oXw80vkSJOlWc-7" value="Medicamentos são retirados para serem aplicados" style="text;strokeColor=none;align=center;fillColor=none;html=1;verticalAlign=middle;whiteSpace=wrap;rounded=0;fontSize=16;movable=1;resizable=1;rotatable=1;deletable=1;editable=1;locked=0;connectable=1;" parent="1" vertex="1">
          <mxGeometry x="160" y="-45" width="140" height="80" as="geometry" />
        </mxCell>
        <mxCell id="l69Jnb-oXw80vkSJOlWc-56" value="" style="edgeStyle=none;curved=1;rounded=0;orthogonalLoop=1;jettySize=auto;html=1;fontSize=12;startSize=8;endSize=8;" parent="1" source="l69Jnb-oXw80vkSJOlWc-10" target="l69Jnb-oXw80vkSJOlWc-12" edge="1">
          <mxGeometry relative="1" as="geometry" />
        </mxCell>
        <mxCell id="l69Jnb-oXw80vkSJOlWc-10" value="Implicações" style="text;strokeColor=none;align=center;fillColor=none;html=1;verticalAlign=middle;whiteSpace=wrap;rounded=0;fontSize=16;" parent="1" vertex="1">
          <mxGeometry x="414" y="-40" width="110" height="70" as="geometry" />
        </mxCell>
        <mxCell id="l69Jnb-oXw80vkSJOlWc-57" value="" style="edgeStyle=none;curved=1;rounded=0;orthogonalLoop=1;jettySize=auto;html=1;fontSize=12;startSize=8;endSize=8;" parent="1" source="l69Jnb-oXw80vkSJOlWc-12" target="l69Jnb-oXw80vkSJOlWc-20" edge="1">
          <mxGeometry relative="1" as="geometry" />
        </mxCell>
        <mxCell id="l69Jnb-oXw80vkSJOlWc-12" value="" style="rounded=0;whiteSpace=wrap;html=1;" parent="1" vertex="1">
          <mxGeometry x="389" y="70" width="160" height="80" as="geometry" />
        </mxCell>
        <mxCell id="l69Jnb-oXw80vkSJOlWc-14" value="Gastos de Recursos" style="text;strokeColor=none;align=center;fillColor=none;html=1;verticalAlign=middle;whiteSpace=wrap;rounded=0;fontSize=16;" parent="1" vertex="1">
          <mxGeometry x="419" y="80" width="100" height="60" as="geometry" />
        </mxCell>
        <mxCell id="l69Jnb-oXw80vkSJOlWc-61" value="" style="edgeStyle=none;curved=1;rounded=0;orthogonalLoop=1;jettySize=auto;html=1;fontSize=12;startSize=8;endSize=8;" parent="1" source="l69Jnb-oXw80vkSJOlWc-19" target="l69Jnb-oXw80vkSJOlWc-41" edge="1">
          <mxGeometry relative="1" as="geometry" />
        </mxCell>
        <mxCell id="l69Jnb-oXw80vkSJOlWc-67" value="" style="edgeStyle=none;curved=1;rounded=0;orthogonalLoop=1;jettySize=auto;html=1;fontSize=12;startSize=8;endSize=8;" parent="1" source="l69Jnb-oXw80vkSJOlWc-19" target="l69Jnb-oXw80vkSJOlWc-23" edge="1">
          <mxGeometry relative="1" as="geometry" />
        </mxCell>
        <mxCell id="l69Jnb-oXw80vkSJOlWc-19" value="" style="rhombus;whiteSpace=wrap;html=1;" parent="1" vertex="1">
          <mxGeometry x="394" y="220" width="150" height="140" as="geometry" />
        </mxCell>
        <mxCell id="l69Jnb-oXw80vkSJOlWc-20" value="Necessario ter controle" style="text;strokeColor=none;align=center;fillColor=none;html=1;verticalAlign=middle;whiteSpace=wrap;rounded=0;fontSize=16;" parent="1" vertex="1">
          <mxGeometry x="439" y="275" width="60" height="30" as="geometry" />
        </mxCell>
        <mxCell id="l69Jnb-oXw80vkSJOlWc-69" value="" style="edgeStyle=none;curved=1;rounded=0;orthogonalLoop=1;jettySize=auto;html=1;fontSize=12;startSize=8;endSize=8;" parent="1" source="l69Jnb-oXw80vkSJOlWc-23" target="l69Jnb-oXw80vkSJOlWc-28" edge="1">
          <mxGeometry relative="1" as="geometry" />
        </mxCell>
        <mxCell id="l69Jnb-oXw80vkSJOlWc-23" value="Se não" style="text;strokeColor=none;align=center;fillColor=none;html=1;verticalAlign=middle;whiteSpace=wrap;rounded=0;fontSize=16;" parent="1" vertex="1">
          <mxGeometry x="290" y="275" width="60" height="30" as="geometry" />
        </mxCell>
        <mxCell id="l69Jnb-oXw80vkSJOlWc-73" value="" style="edgeStyle=none;curved=1;rounded=0;orthogonalLoop=1;jettySize=auto;html=1;fontSize=12;startSize=8;endSize=8;" parent="1" source="l69Jnb-oXw80vkSJOlWc-25" target="l69Jnb-oXw80vkSJOlWc-29" edge="1">
          <mxGeometry relative="1" as="geometry" />
        </mxCell>
        <mxCell id="l69Jnb-oXw80vkSJOlWc-25" value="" style="rounded=0;whiteSpace=wrap;html=1;" parent="1" vertex="1">
          <mxGeometry x="120" y="250" width="130" height="80" as="geometry" />
        </mxCell>
        <mxCell id="l69Jnb-oXw80vkSJOlWc-28" value="Desperdicio e perca de dinheiro" style="text;strokeColor=none;align=center;fillColor=none;html=1;verticalAlign=middle;whiteSpace=wrap;rounded=0;fontSize=16;" parent="1" vertex="1">
          <mxGeometry x="130" y="250" width="110" height="80" as="geometry" />
        </mxCell>
        <mxCell id="l69Jnb-oXw80vkSJOlWc-76" value="" style="edgeStyle=none;curved=1;rounded=0;orthogonalLoop=1;jettySize=auto;html=1;fontSize=12;startSize=8;endSize=8;" parent="1" source="l69Jnb-oXw80vkSJOlWc-29" target="l69Jnb-oXw80vkSJOlWc-38" edge="1">
          <mxGeometry relative="1" as="geometry" />
        </mxCell>
        <mxCell id="l69Jnb-oXw80vkSJOlWc-29" value="Consequê&lt;span style=&quot;background-color: transparent; color: light-dark(rgb(0, 0, 0), rgb(255, 255, 255));&quot;&gt;ncia&lt;/span&gt;" style="text;strokeColor=none;align=center;fillColor=none;html=1;verticalAlign=middle;whiteSpace=wrap;rounded=0;fontSize=16;" parent="1" vertex="1">
          <mxGeometry x="-50" y="262.5" width="130" height="55" as="geometry" />
        </mxCell>
        <mxCell id="l69Jnb-oXw80vkSJOlWc-72" value="" style="edgeStyle=none;curved=1;rounded=0;orthogonalLoop=1;jettySize=auto;html=1;fontSize=12;startSize=8;endSize=8;" parent="1" source="l69Jnb-oXw80vkSJOlWc-41" target="l69Jnb-oXw80vkSJOlWc-44" edge="1">
          <mxGeometry relative="1" as="geometry" />
        </mxCell>
        <mxCell id="l69Jnb-oXw80vkSJOlWc-41" value="Se sim" style="text;strokeColor=none;align=center;fillColor=none;html=1;verticalAlign=middle;whiteSpace=wrap;rounded=0;fontSize=16;" parent="1" vertex="1">
          <mxGeometry x="590" y="275" width="60" height="30" as="geometry" />
        </mxCell>
        <mxCell id="l69Jnb-oXw80vkSJOlWc-82" value="" style="edgeStyle=none;curved=1;rounded=0;orthogonalLoop=1;jettySize=auto;html=1;fontSize=12;startSize=8;endSize=8;" parent="1" source="l69Jnb-oXw80vkSJOlWc-43" target="l69Jnb-oXw80vkSJOlWc-80" edge="1">
          <mxGeometry relative="1" as="geometry" />
        </mxCell>
        <mxCell id="l69Jnb-oXw80vkSJOlWc-43" value="" style="whiteSpace=wrap;html=1;" parent="1" vertex="1">
          <mxGeometry x="710" y="240" width="186.5" height="100" as="geometry" />
        </mxCell>
        <mxCell id="l69Jnb-oXw80vkSJOlWc-44" value="É feito registro relacionado ao medicamento e ao medico" style="text;strokeColor=none;align=center;fillColor=none;html=1;verticalAlign=middle;whiteSpace=wrap;rounded=0;fontSize=16;" parent="1" vertex="1">
          <mxGeometry x="723.25" y="245" width="160" height="90" as="geometry" />
        </mxCell>
        <mxCell id="l69Jnb-oXw80vkSJOlWc-46" value="PROCEDIMENTO: MED. VET &amp;gt; FARMÁCIA&amp;nbsp;" style="text;strokeColor=none;align=center;fillColor=none;html=1;verticalAlign=middle;whiteSpace=wrap;rounded=0;fontSize=16;" parent="1" vertex="1">
          <mxGeometry x="205" y="-140" width="450" height="50" as="geometry" />
        </mxCell>
        <mxCell id="l69Jnb-oXw80vkSJOlWc-54" value="" style="edgeStyle=none;curved=1;rounded=0;orthogonalLoop=1;jettySize=auto;html=1;fontSize=12;startSize=8;endSize=8;" parent="1" source="l69Jnb-oXw80vkSJOlWc-52" target="l69Jnb-oXw80vkSJOlWc-6" edge="1">
          <mxGeometry relative="1" as="geometry" />
        </mxCell>
        <mxCell id="l69Jnb-oXw80vkSJOlWc-52" value="Razão para o processo" style="text;strokeColor=none;fillColor=none;html=1;align=center;verticalAlign=middle;whiteSpace=wrap;rounded=0;fontSize=16;" parent="1" vertex="1">
          <mxGeometry x="-35" y="-40" width="100" height="70" as="geometry" />
        </mxCell>
        <mxCell id="l69Jnb-oXw80vkSJOlWc-75" value="" style="ellipse;whiteSpace=wrap;html=1;" parent="1" vertex="1">
          <mxGeometry x="-75" y="375" width="180" height="110" as="geometry" />
        </mxCell>
        <mxCell id="l69Jnb-oXw80vkSJOlWc-38" value="Desconto do pagamento do medico" style="text;strokeColor=none;align=center;fillColor=none;html=1;verticalAlign=middle;whiteSpace=wrap;rounded=0;fontSize=16;" parent="1" vertex="1">
          <mxGeometry x="-47.5" y="400" width="125" height="60" as="geometry" />
        </mxCell>
        <mxCell id="l69Jnb-oXw80vkSJOlWc-77" style="edgeStyle=none;curved=1;rounded=0;orthogonalLoop=1;jettySize=auto;html=1;exitX=0.5;exitY=1;exitDx=0;exitDy=0;fontSize=12;startSize=8;endSize=8;" parent="1" source="l69Jnb-oXw80vkSJOlWc-45" target="l69Jnb-oXw80vkSJOlWc-45" edge="1">
          <mxGeometry relative="1" as="geometry" />
        </mxCell>
        <mxCell id="l69Jnb-oXw80vkSJOlWc-87" value="" style="edgeStyle=none;curved=1;rounded=0;orthogonalLoop=1;jettySize=auto;html=1;fontSize=12;startSize=8;endSize=8;" parent="1" source="l69Jnb-oXw80vkSJOlWc-80" target="l69Jnb-oXw80vkSJOlWc-85" edge="1">
          <mxGeometry relative="1" as="geometry" />
        </mxCell>
        <mxCell id="l69Jnb-oXw80vkSJOlWc-80" value="Resultado" style="text;strokeColor=none;fillColor=none;html=1;align=center;verticalAlign=middle;whiteSpace=wrap;rounded=0;fontSize=16;" parent="1" vertex="1">
          <mxGeometry x="748.25" y="390" width="110" height="60" as="geometry" />
        </mxCell>
        <mxCell id="l69Jnb-oXw80vkSJOlWc-85" value="" style="rounded=0;whiteSpace=wrap;html=1;" parent="1" vertex="1">
          <mxGeometry x="723.25" y="490" width="160" height="80" as="geometry" />
        </mxCell>
        <mxCell id="l69Jnb-oXw80vkSJOlWc-86" value="Criação de relatórios" style="text;strokeColor=none;fillColor=none;html=1;align=center;verticalAlign=middle;whiteSpace=wrap;rounded=0;fontSize=16;" parent="1" vertex="1">
          <mxGeometry x="748.25" y="490" width="110" height="80" as="geometry" />
        </mxCell>
      </root>
    </mxGraphModel>
  </diagram>
</mxfile>
